<?xml version="1.0" encoding="utf-8"?>
<!-- Generator: Adobe Illustrator 15.0.0, SVG Export Plug-In . SVG Version: 6.00 Build 0)  -->
<!DOCTYPE svg PUBLIC "-//W3C//DTD SVG 1.1//EN" "http://www.w3.org/Graphics/SVG/1.1/DTD/svg11.dtd">
<svg version="1.1" id="Layer_1" xmlns="http://www.w3.org/2000/svg" xmlns:xlink="http://www.w3.org/1999/xlink" x="0px" y="0px"
	 width="110px" height="35px" viewBox="0 0 110 35" enable-background="new 0 0 110 35" xml:space="preserve">
<g>
	<polygon fill="#FFFFFF" points="19.042,19.293 29.389,19.461 13.95,23.023 26.647,5.78 	"/>
	<polygon fill="#FFFFFF" points="15.229,12.714 4.881,12.545 20.32,8.983 7.623,26.227 	"/>
	<path fill="#FFFFFF" d="M26.595,5.723c1.337,1.226,2.458,2.732,3.264,4.484c3.265,7.077,0.173,15.459-6.905,18.723
		c-4.637,2.139-9.834,1.549-13.786-1.102l1.131-1.537c3.41,2.256,7.873,2.748,11.857,0.91c6.123-2.824,8.798-10.076,5.974-16.197
		c-0.632-1.371-1.486-2.567-2.5-3.569L26.595,5.723z"/>
	<path fill="#FFFFFF" d="M4.228,22.023C0.964,14.948,4.056,6.564,11.134,3.3c4.637-2.138,9.834-1.548,13.786,1.104l-1.131,1.535
		c-3.41-2.254-7.873-2.747-11.857-0.91c-6.123,2.824-8.799,10.077-5.975,16.2c0.632,1.369,1.486,2.565,2.5,3.567l-0.964,1.711
		C6.156,25.281,5.035,23.777,4.228,22.023z"/>
</g>
<path fill="#FFFFFF" d="M32.91,20.896l4.77-5.1c1.23-1.29,2.16-2.19,3.57-3.39l0.03-0.06h-6.27l0.69-3.51h11.459l-0.51,2.73
	L42,16.547c-1.32,1.379-2.25,2.311-3.57,3.389l-0.03,0.062h6.899l-0.69,3.51H32.43L32.91,20.896z"/>
<polygon fill="#FFFFFF" points="47.1,23.506 49.89,8.837 54.21,8.837 51.42,23.506 "/>
<path fill="#FFFFFF" d="M52.56,7.007c-1.2,0-2.07-0.84-2.07-2.1c0-1.47,1.17-2.46,2.49-2.46c1.29,0,2.19,0.84,2.19,2.13
	c0,1.53-1.17,2.43-2.55,2.43H52.56z"/>
<path fill="#FFFFFF" d="M72.27,2.207l-2.97,15.6c-0.36,1.859-0.63,3.959-0.69,5.699H64.65l0.209-2.369H64.8
	c-1.29,1.949-3.09,2.699-4.829,2.699c-2.49,0-4.53-1.98-4.53-5.549c0-5.1,3.689-9.81,9.239-9.81c0.6,0,1.381,0.12,2.01,0.36
	l1.291-6.63H72.27z M66.09,12.287c-0.359-0.3-1.021-0.51-1.71-0.51c-2.61,0-4.44,3-4.44,5.821c0,1.771,0.781,2.76,2.012,2.76
	c1.26,0,2.79-1.319,3.359-4.141L66.09,12.287z"/>
<path fill="#FFFFFF" d="M89.068,2.207l-2.969,15.6c-0.361,1.859-0.631,3.959-0.69,5.699h-3.96l0.21-2.369H81.6
	c-1.289,1.949-3.09,2.699-4.83,2.699c-2.488,0-4.528-1.98-4.528-5.549c0-5.1,3.688-9.81,9.239-9.81c0.6,0,1.379,0.12,2.01,0.36
	l1.289-6.63H89.068z M82.891,12.287c-0.361-0.3-1.021-0.51-1.711-0.51c-2.609,0-4.438,3-4.438,5.821c0,1.771,0.778,2.76,2.01,2.76
	c1.26,0,2.789-1.319,3.358-4.141L82.891,12.287z"/>
<path fill="#FFFFFF" d="M104.549,8.837l-1.859,9.899c-0.359,1.858-0.601,3.449-0.779,4.77H98.1l0.271-2.369l-0.06-0.031
	c-1.5,1.92-3.271,2.73-5.041,2.73c-2.369,0-3.779-1.32-3.779-4.109c0-0.779,0.091-1.68,0.301-2.699l1.561-8.189h4.319l-1.5,7.859
	c-0.12,0.689-0.21,1.41-0.21,1.949c0,0.931,0.391,1.681,1.471,1.681c1.469,0,2.969-1.771,3.539-4.681l1.291-6.81H104.549z"/>
<text transform="matrix(1 0 0 1 81.3076 33.79)" fill="#FFFFFF" font-family="'MyriadPro-Regular'" font-size="12">beta</text>
</svg>
